<?xml version="1.0" encoding="UTF-8"?>
<svg id="Layer_2" xmlns="http://www.w3.org/2000/svg" viewBox="0 0 260 280">
  <path d="M47.64,146.21c1.56-2.74,1.16-5.53,1.05-7.22-.2-3.16,1.32-7.27,4.38-15.48,7.88-21.19,21.22-36.52,21.22-36.52,7.3-8.39,14.03-13.56,18.26-16.78,8.92-6.78,14.33-9.08,16.29-9.87,3.52-1.42,7.67-3.05,13.32-3.45,8.52-.61,15.47,1.92,18.26,2.96,8.26,3.1,12.38,7.22,14.8,5.43,1.31-.97.44-2.43,2.47-6.42,1.12-2.21,2.59-5.1,4.93-5.43,2.07-.29,3.13,1.64,4.93.99,1.42-.51,1.18-1.86,2.63-2.88,2.29-1.63,6.12-.53,8.26.57,3.24,1.66,3.61,3.79,5.98,3.99,2.05.17,3.62-1.27,4.56-1.99,4.11-3.19,9.59-3.14,20.55-3.03.52,0,13.07.18,17.35,2.86.29.18,1.18.78,2.53,1.18,1.98.59,2.94.16,5.05.34.79.07,5.04.42,5.56,2.19.3,1.03-.96,1.47-1.85,4.04-.32.91-.44,2.08-.67,4.38-.47,4.63-.14,4.5-.51,5.22-1.16,2.27-3.52,1.74-6.23,4.21-1.74,1.59-2.23,3.14-3.03,4.72-3.71,7.28-10.6,8.12-19.71,17.52-1.99,2.06-2.64,3.02-2.86,3.37-2.6,4-1.82,6.51-4.38,8.59-1.51,1.23-2.35.82-3.37,2.19-1.16,1.55-1.03,3.35-1.01,5.05.01.82.05,5.48-.84,9.26-.44,1.86-1.92,8.17-5.22,10.44-.3.21-1.13.73-1.18,1.52-.07.96,1.06,1.68,2.19,2.53,1.66,1.24,4.52,3.36,6.06,6.06.89,1.55,1.15,2.98,1.35,4.04.54,2.92-.24,3.47.17,6.57.39,2.95,1.26,3.57.84,5.22-.55,2.19-2.42,3.78-2.86,3.54-.44-.24.77-2.13.84-5.39.06-2.79-.74-5.24-1.18-5.22-.36.02-.25,1.76-1.35,4.38-.58,1.39-1.4,2.79-1.68,2.69-.48-.17,1.02-4.48.17-4.88-.58-.28-1.95,1.39-2.19,1.68-1.2,1.46-1.5,2.74-1.68,2.69-.26-.07.37-2.68.67-6.23.29-3.48,0-4.61-.34-5.39-.62-1.48-1.98-3.27-2.86-3.03-1.01.28-1.02,3.12-1.01,7.41.01,4.02.03,7.05.84,11.28.85,4.46,1.37,6.99,3.54,9.26.6.63,1.86,1.92,3.87,2.53,2.12.64,3.54.05,5.9-.17,3.92-.36,7.7.28,7.75.84.05.61-4.27,1.24-4.21,1.85.06.58,3.91.26,4.04,1.01.09.55-1.78,1.8-3.54,1.52-1.33-.21-1.66-1.16-3.03-1.18-.97-.02-2.1.43-2.19,1.01-.11.72,1.49.99,2.02,2.53.28.79.24,1.83-.17,2.02-.55.26-1.33-1.25-3.2-2.36-1.2-.71-1.4-.39-4.04-1.18-2.73-.82-3.01-1.31-6.06-2.19-1.44-.42-2.16-.62-3.03-.67-2.5-.14-4.15.77-4.38.34-.21-.4,1.02-1.5,1.68-2.02,1.1-.85,1.65-.85,1.85-1.35.39-.96-1.06-2.34-2.02-3.37-2.84-3.04-1.63-3.34-5.39-8.25-1.96-2.57-3.08-4.02-5.05-5.56-2.86-2.23-3.37-1.4-6.74-3.71-3.67-2.51-3.87-4.05-7.58-5.9-1.43-.71-2.67-1.31-4.38-1.35-2.32-.05-2.82.98-5.9,1.68-3.79.87-4.79-.28-6.57.84-1.41.89-1.17,1.87-2.86,5.73-2.79,6.36-5.56,10.44-5.56,10.44-.94,1.39-1.72,2.37-1.35,3.03.53.95,2.73.07,6.4.67,1.97.32,5.03,1.18,5.05,2.19.02,1.18-4.13,1.94-4.04,2.36.09.46,5.16-.34,10.44-.84,12.43-1.18,10.64.77,17.01-.34,1.22-.21,4.4-.82,6.91.84.84.56,1.67,1.41,1.52,1.68-.26.46-3.22-.82-3.37-.51-.13.29,2.35,1.11,3.03,3.2.32.97.19,2.07-.17,2.19-.5.17-1.02-1.65-2.69-2.19-1-.32-2.2-.12-2.36.34-.17.48.92.89,1.52,2.36.31.76.5,1.83.17,2.02-.42.24-1.21-1.24-3.03-2.19-1.58-.82-3.96-1.26-4.72-.34-.88,1.08.94,3.39.17,4.04-.45.37-1.25-.23-3.37-.84-1.12-.32-.98-.18-3.37-.67-1.54-.32-3.37-.7-5.39-1.35-2.21-.71-2.46-1.03-3.54-1.35-2.89-.84-5.13.33-8.42,1.35-3.04.94-6.74,1.25-14.15,1.85-5.18.42-7.59.31-8.08-.84-.15-.35-.07-.66,1.01-3.87.94-2.8,1.08-3.18.84-3.54-.41-.62-1.55-.62-6.06.17-4.21.73-4.48.95-6.4,1.18-4.06.48-6.08.72-7.58-.51-1.92-1.58-2.52-5.07-2.36-7.41.08-1.13.34-2.01,0-2.19-.63-.33-2.46,2.31-3.71,3.71-2.39,2.68-4.7,3.09-16.51,6.23-8.74,2.33-10.79,2.99-15.33,3.71-4.79.75-7.43.79-10.27.17-1.43-.31-4.59-1.03-7.75-3.37-3.55-2.63-3.34-4.52-5.39-5.56-4.49-2.28-13.79,2.58-17.69,9.77-6.4,11.82,3.8,26.26,4.55,27.29,6.54,8.99,16.08,11.97,23.58,14.32,6.35,1.98,13.44,2.5,27.62,3.54,9.06.66,16.16.9,19.88,1.01,19.5.56,22.58-.43,41.1,0,14.97.35,24.77,1.27,27.29,1.52,3.89.38.67.13,27.29,4.04,3.46.51,9.22,1.35,16.17,4.21,4.3,1.77,9.38,4.44,9.1,5.22-.14.39-1.6.29-8.76-1.18-6.5-1.33-9.75-2-13.64-3.03-7.63-2.03-14.41-2.54-25.6-3.37-9.62-.72-14.26-.41-41.27.51-22.12.75-30.08.92-37.22,1.01-19.3.25-26.96-.12-35.37-1.18-13.1-1.66-20.14-2.63-27.96-7.75-9.43-6.17-14.05-14.47-16.34-18.7-3.21-5.93-7.27-13.41-5.9-22.91.85-5.88,3.41-9.99,4.88-12.3,6.74-10.56,18.11-16.11,23.08-18.53,4.01-1.95,7.58-4.7,11.45-6.91,1.68-.96,3.59-2.02,4.85-4.23Z"/>
</svg>