<?xml version="1.0" encoding="UTF-8"?>
<svg id="Layer_2" xmlns="http://www.w3.org/2000/svg" version="1.1" viewBox="0 0 260 280">
  <!-- Generator: Adobe Illustrator 29.0.0, SVG Export Plug-In . SVG Version: 2.1.0 Build 186)  -->
  <path d="M195.5,146.2c1.3,2.2,3.2,3.3,4.8,4.2,3.9,2.2,7.4,5,11.4,6.9,5,2.4,16.3,8,23.1,18.5,1.5,2.3,4,6.4,4.9,12.3,1.4,9.5-2.7,17-5.9,22.9-2.3,4.2-6.9,12.5-16.3,18.7-7.8,5.1-14.9,6.1-28,7.7-8.4,1.1-16.1,1.4-35.4,1.2-7.1,0-15.1-.3-37.2-1-27-.9-31.7-1.2-41.3-.5-11.2.8-18,1.3-25.6,3.4-3.9,1-7.1,1.7-13.6,3-7.2,1.5-8.6,1.6-8.8,1.2-.3-.8,4.8-3.4,9.1-5.2,6.9-2.9,12.7-3.7,16.2-4.2,26.6-3.9,23.4-3.7,27.3-4,2.5-.2,12.3-1.2,27.3-1.5,18.5-.4,21.6.6,41.1,0,3.7-.1,10.8-.3,19.9-1,14.2-1,21.3-1.6,27.6-3.5,7.5-2.4,17-5.3,23.6-14.3.8-1,11-15.5,4.6-27.3-3.9-7.2-13.2-12.1-17.7-9.8-2,1-1.8,2.9-5.4,5.6-3.2,2.3-6.3,3.1-7.8,3.4-2.8.6-5.5.6-10.3-.2-4.5-.7-6.6-1.4-15.3-3.7-11.8-3.1-14.1-3.6-16.5-6.2-1.2-1.4-3.1-4-3.7-3.7-.3.2,0,1.1,0,2.2.2,2.3-.4,5.8-2.4,7.4-1.5,1.2-3.5,1-7.6.5-1.9-.2-2.2-.4-6.4-1.2-4.5-.8-5.6-.8-6.1-.2-.2.4-.1.7.8,3.5,1.1,3.2,1.2,3.5,1,3.9-.5,1.1-2.9,1.3-8.1.8-7.4-.6-11.1-.9-14.2-1.9-3.3-1-5.5-2.2-8.4-1.4-1.1.3-1.3.6-3.5,1.4-2,.7-3.9,1-5.4,1.4-2.4.5-2.3.3-3.4.7-2.1.6-2.9,1.2-3.4.8-.8-.6,1.1-3,.2-4-.8-.9-3.1-.5-4.7.3-1.8.9-2.6,2.4-3,2.2-.3-.2-.1-1.3.2-2,.6-1.5,1.7-1.9,1.5-2.4-.2-.5-1.4-.7-2.4-.3-1.7.5-2.2,2.4-2.7,2.2-.4-.1-.5-1.2-.2-2.2.7-2.1,3.2-2.9,3-3.2-.1-.3-3.1,1-3.4.5-.1-.3.7-1.1,1.5-1.7,2.5-1.7,5.7-1.1,6.9-.8,6.4,1.1,4.6-.8,17,.3,5.3.5,10.4,1.3,10.4.8,0-.4-4.1-1.2-4-2.4,0-1,3.1-1.9,5.1-2.2,3.7-.6,5.9.3,6.4-.7.4-.7-.4-1.6-1.4-3,0,0-2.8-4.1-5.6-10.4-1.7-3.9-1.4-4.8-2.9-5.7-1.8-1.1-2.8,0-6.6-.8-3.1-.7-3.6-1.7-5.9-1.7-1.7,0-3,.6-4.4,1.4-3.7,1.8-3.9,3.4-7.6,5.9-3.4,2.3-3.9,1.5-6.7,3.7-2,1.5-3.1,3-5.1,5.6-3.8,4.9-2.6,5.2-5.4,8.2-1,1-2.4,2.4-2,3.4.2.5.7.5,1.9,1.4.7.5,1.9,1.6,1.7,2-.2.4-1.9-.5-4.4-.3-.9,0-1.6.2-3,.7-3.1.9-3.3,1.4-6.1,2.2-2.6.8-2.8.5-4,1.2-1.9,1.1-2.6,2.6-3.2,2.4-.4-.2-.4-1.2-.2-2,.5-1.5,2.1-1.8,2-2.5,0-.6-1.2-1-2.2-1-1.4,0-1.7,1-3,1.2-1.8.3-3.6-1-3.5-1.5.1-.7,4-.4,4-1,0-.6-4.3-1.2-4.2-1.9,0-.6,3.8-1.2,7.8-.8,2.4.2,3.8.8,5.9.2,2-.6,3.3-1.9,3.9-2.5,2.2-2.3,2.7-4.8,3.5-9.3.8-4.2.8-7.3.8-11.3,0-4.3,0-7.1-1-7.4-.9-.2-2.2,1.6-2.9,3-.3.8-.6,1.9-.3,5.4.3,3.6.9,6.2.7,6.2-.2,0-.5-1.2-1.7-2.7-.2-.3-1.6-2-2.2-1.7-.9.4.6,4.7.2,4.9-.3,0-1.1-1.3-1.7-2.7-1.1-2.6-1-4.4-1.4-4.4-.4,0-1.2,2.4-1.2,5.2,0,3.3,1.3,5.1.8,5.4s-2.3-1.3-2.9-3.5c-.4-1.6.4-2.3.8-5.2.4-3.1-.4-3.7.2-6.6.2-1.1.5-2.5,1.4-4,1.5-2.7,4.4-4.8,6.1-6.1,1.1-.9,2.3-1.6,2.2-2.5,0-.8-.9-1.3-1.2-1.5-3.3-2.3-4.8-8.6-5.2-10.4-.9-3.8-.8-8.4-.8-9.3,0-1.7.2-3.5-1-5.1-1-1.4-1.9-1-3.4-2.2-2.6-2.1-1.8-4.6-4.4-8.6-.2-.4-.9-1.3-2.9-3.4-9.1-9.4-16-10.2-19.7-17.5-.8-1.6-1.3-3.1-3-4.7-2.7-2.5-5.1-1.9-6.2-4.2-.4-.7,0-.6-.5-5.2-.2-2.3-.3-3.5-.7-4.4-.9-2.6-2.2-3-1.9-4,.5-1.8,4.8-2.1,5.6-2.2,2.1-.2,3.1.3,5.1-.3,1.4-.4,2.2-1,2.5-1.2,4.3-2.7,16.8-2.9,17.4-2.9,11-.1,16.4-.2,20.6,3,.9.7,2.5,2.2,4.6,2,2.4-.2,2.7-2.3,6-4,2.1-1.1,6-2.2,8.3-.6,1.5,1,1.2,2.4,2.6,2.9,1.8.6,2.9-1.3,4.9-1,2.3.3,3.8,3.2,4.9,5.4,2,4,1.2,5.4,2.5,6.4,2.4,1.8,6.5-2.3,14.8-5.4,2.8-1,9.7-3.6,18.3-3,5.7.4,9.8,2,13.3,3.5,2,.8,7.4,3.1,16.3,9.9,4.2,3.2,11,8.4,18.3,16.8,0,0,13.3,15.3,21.2,36.5,3.1,8.2,4.6,12.3,4.4,15.5-.1,1.7-.5,4.5,1,7.2h0Z"/>
</svg>